<?xml version="1.0" encoding="utf-8"?>
<!-- Generator: Adobe Illustrator 23.0.2, SVG Export Plug-In . SVG Version: 6.00 Build 0)  -->
<svg version="1.1" id="Layer_1" xmlns="http://www.w3.org/2000/svg" xmlns:xlink="http://www.w3.org/1999/xlink" x="0px" y="0px"
	 viewBox="0 0 595.28 841.89" style="enable-background:new 0 0 595.28 841.89;" xml:space="preserve">
<style type="text/css">
	.st0{fill:#ED1C24;}
	.st1{fill:none;stroke:url(#SVGID_1_);stroke-width:11;stroke-miterlimit:10;}
</style>
<g>
	<path class="st0" d="M419.38,316.31L419.38,316.31c-33.3-33.3-87.3-33.3-120.6,0l-17.35,17.35l-17.35-17.35
		c-33.3-33.3-87.3-33.3-120.6,0l0,0c-25.32,25.32-25.32,66.38,0,91.7l137.16,137.16l0.79-0.79l0.79,0.79l137.16-137.16
		C444.7,382.69,444.7,341.63,419.38,316.31z"/>
	<radialGradient id="SVGID_1_" cx="281.426" cy="434.3935" r="125.3442" gradientUnits="userSpaceOnUse">
		<stop  offset="0" style="stop-color:#FFFFFF"/>
		<stop  offset="1" style="stop-color:#FFFFFF"/>
	</radialGradient>
	<path class="st1" d="M396.8,348L396.8,348c-27.85-27.85-73.01-27.85-100.86,0l-14.51,14.51L266.91,348
		c-27.85-27.85-73.01-27.85-100.86,0l0,0c-21.18,21.18-21.18,55.51,0,76.69L280.77,539.4l0.66-0.66l0.66,0.66L396.8,424.69
		C417.98,403.51,417.98,369.18,396.8,348z"/>
</g>
</svg>
